<svg height="64" preserveAspectRatio="none" viewBox="0 0 64 64" width="64" xmlns="http://www.w3.org/2000/svg"><path d="m45.4169922 52.9169922s11.5 2.4169922 11.4160156-5-1.75-10.8808594-3.2402344-15.5390625c-1.2695312-3.9682617-2.1757812-12.8066406 2.1572266-13.3178711 3.8886719-.4589844 7.3662109 2.9199219 6.1992188 4.8754883s-3.3085938-2.371582-5.5332031-1.6679688c-2.1660157.6850586-.1132813 7.4975586.4003906 9.7324219.7666015 3.3330078 4.4335937 11.75 3.0166015 18-1.2705078 5.6035156-6.1669922 7.5839844-15.75 7.75z" fill="#bc6924"/><path d="m44.0830078 58.3808594c-.1943359 0-.3789063-.0898438-.4980469-.2441406-.1220703-.1572266-.1630859-.3632813-.1103516-.5546875l1.3339844-4.8330078c.0888672-.3212891.4091797-.5175781.7382813-.4492188.0166016.0039063 1.7578125.3632813 3.8232422.3632813 1.8544922 0 4.3544922-.2949219 5.7402344-1.6953125.7490234-.7587891 1.1064453-1.7539063 1.0917969-3.0439453-.0683594-6.0849609-1.2294922-9.4921875-2.4580078-13.0986328-.25-.734375-.5039063-1.4785156-.7519531-2.2548828-.859375-2.6865234-1.9707031-9.265625.0820313-12.4541016.6357422-.987793 1.5107422-1.5537109 2.6015625-1.6826172 3.0068359-.3530273 5.7089844 1.3833008 6.6835938 3.0996094.5527344.9731445.5996094 1.9414063.1318359 2.7255859-.4042969.6772461-.9267578.8193359-1.2939453.8193359-.7167969 0-1.3994141-.534668-2.1220703-1.1010742-.8056641-.6313477-1.7333984-1.3388672-2.46875-1.1083984-.8798828.2783203-.6904297 2.9477539.5644531 7.9331055.1044922.4116211.1943359.7714844.2597656 1.0571289.1679688.7294922.4892578 1.7407227.8613281 2.9116211 1.3095703 4.1289063 3.2900391 10.3671875 2.15625 15.3691406-1.2871094 5.6748047-6.0253906 8.0615234-16.3544922 8.2412109-.0039063 0-.006836 0-.0107423 0zm1.7890625-4.741211-.9550781 3.4599609c9.1552734-.2714844 13.1884766-2.3330078 14.3007813-7.2392578 1.0585938-4.6679688-.859375-10.7099609-2.1279297-14.7080078-.3808594-1.1972656-.7089844-2.2314453-.8876953-3.0107422-.0644531-.2792969-.1533203-.6298828-.2539063-1.0317383-1.1035156-4.3847656-1.9912109-8.7260742.2773438-9.4433594.2255859-.0717773.4609375-.1079102.6992188-.1079102 1.1083984 0 2.0751953.7573242 2.9277344 1.4257813.4736328.3706055 1.0625.8325195 1.3447266.8325195.0585938 0 .1298828-.0688477.2099609-.2045898.2890625-.4838867.0810547-1.059082-.1445313-1.456543-.7578125-1.3339844-2.9912109-2.7568359-5.4384766-2.4692383-.7089844.0834961-1.2617188.4472656-1.6894531 1.1123047-1.5625 2.4272461-.9697266 8.1728516.0585938 11.3867188.2460938.7695313.4970703 1.5058594.7451172 2.2324219 1.2617188 3.7050781 2.4541016 7.2050781 2.5253906 13.4921875.0185547 1.6210938-.4716797 2.9482422-1.4570313 3.9443359-1.3574219 1.3730469-3.5908203 2.0693359-6.6367188 2.0693359-1.4804688.0000001-2.78125-.1689452-3.4980469-.2841796z" fill="#471a03"/><path d="m48.8642578 31.5976563c-5.7822266-12.2651367-21.1220703-8.9106445-21.1220703-8.9106445l-10.8222656 9.6108398 1.4609375 1.3027344c-2.2392578 4.4423828-4.8408203 12.9746094-4.8408203 12.9746094l-5.1582031 5.7021484s-2.0488281.7216797-3.6757813 5.4599609c0 0-.4824219 2.3300781 1.1240234 2.9726563 1.6064453.6416016 1.6650391-2.0078125 3.0341797-3.3730469 1.3691406-1.3662109 3.8779297-.0625 4.2792969-2.6328125 0 0 8.0009766-3.8730469 9.6601563-7.2460938.7065429-1.4375 12.946289 12.2919922 12.946289 12.2919922l7.5.5839844c11.2441406-2.8115235 11.3964844-16.4716797 5.6142578-28.7363281z" fill="#bc6924"/><path d="m26.9091797 33.2636719s4.1796875-4.0322266 6.5986328-6.6713867c0 0 .4394531 7.1108398-6.5986328 6.6713867z" fill="#a55417"/><path d="m6.2890625 61.4394531c-.2211914 0-.4545898-.0488281-.6928711-.1435547-1.6557617-.6621094-1.7265625-2.6289063-1.5078125-3.6865234 1.4916992-4.3583984 3.3286133-5.5673828 3.9160156-5.8544922l4.9736328-5.4990234c.3417969-1.1083984 2.5712891-8.2460938 4.625-12.5039063l-1.1030273-.9833984c-.1342773-.1196289-.2109375-.2915039-.2109375-.4711914.0004883-.1801758.0776367-.3515625.2119141-.4711914l10.8222656-9.6108398c.0810547-.0717773.1787109-.121582.2841797-.1445313.0810547-.0175781 2.015625-.434082 4.7875977-.434082 4.6577148 0 13.0639648 1.2592773 17.0395508 9.6918945 4.1132813 8.7250977 4.9658203 17.3149414 2.28125 22.9790039-1.6259766 3.4326172-4.4238281 5.6660156-8.3125 6.6386719-.0664063.015625-.1328125.0214844-.2021484.0166016l-7.5-.5839844c-.1621094-.0126953-.3134766-.0878906-.421875-.2089844-4.8999025-5.4960938-10.5488282-11.2890625-12.091797-12.0986328-1.8447266 3.0986328-8.0595703 6.3447266-9.4863281 7.0605469-.4116211 1.6826172-1.7460938 1.8925781-2.7363281 2.0478516-.6411133.1015625-1.2470703.1962891-1.6552734.6035156-.4448242.4433594-.7421875 1.0791016-1.0297852 1.6943359-.4506836.9648437-.9169922 1.961914-1.9907227 1.961914zm-.9858398-3.4990234c.0058594 0-.3139648 1.7539063.7612305 2.1835938.0874023.0351563.1650391.0537109.2246094.0537109.2709961 0 .5776367-.6552734.8481445-1.234375.3183594-.6806641.6791992-1.4521484 1.2817383-2.0527344.6977539-.6962891 1.5756836-.8349609 2.3500977-.9570313 1.0976563-.1728516 1.5898438-.2919922 1.7514648-1.3271484.0317383-.2041016.1621094-.3798828.3481445-.4697266.078125-.0380859 7.824707-3.8173828 9.3691406-6.9570313.140625-.2871094.4228516-.4580078.7539063-.4580078 1.765625 0 9.5883789 8.5322266 13.0600586 12.4189453l7.1435547.5566406c3.4541016-.8896484 5.9375-2.8837891 7.3808594-5.9296875 2.5253906-5.3271484 1.671875-13.5146484-2.2822266-21.9008789-3.4941406-7.4125977-10.5751953-8.9682617-15.8989258-8.9682617-2.2001953 0-3.8608398.2788086-4.3618164.3735352l-10.1645508 9.0268555.9321289.8310547c.2128906.1904297.2719727.5.1430664.7548828-2.1894531 4.34375-4.7749023 12.7900391-4.8007813 12.8740234-.0268555.0888672-.0732422.1708984-.1352539.2392578l-5.1582031 5.7021484c-.0703125.078125-.1591797.1367188-.2583008.171875-.0058594.0029298-1.8110352.7675782-3.2880859 5.0683595z" fill="#471a03"/><path d="m43.25 60.3339844c-11.8286133 2.0029297-17.8896484-1.8701172-22.3525391-8.1328125 0 0 3.1850586 7.7109375.9765625 8.9951172h-13.4560546s.890625-1.9287109 5.1860352-3.2128906l1.8203125-1.8466797s-1.2392578-11.4199219 1.9931641-13.8945313c1.4345703-1.0976563 11.5415039 1.1396484 11.5415039 1.1396484s2.7075195-.9648438 4.4853516-1.4423828" fill="#bc6924"/><path d="m21.7036133 52.9589844s6.9633789 10.6142578 18.7124023 7.4580078c11.1660157-3-18.7124023-7.4580078-18.7124023-7.4580078z" fill="#a55417"/><path d="m31.9394531 24.6049805v-7.3637695s1.4111328-4.112793 4.7958984-2.2651367c3.3837891 1.8481445-.1591797 10.1821289-1.9755859 10.9907227-1.8129883.8081053-2.8203125-1.3618165-2.8203125-1.3618165z" fill="#bc6924"/><path d="m33.9667969 26.8417969c-1.7348633 0-2.6206055-1.8647461-2.6572266-1.9443359l-.0649414-.1391602.0375977-7.7426758c.0454102-.1308594 1.1328125-3.2114258 3.7861328-3.2114258.6435547 0 1.3164063.1889648 2 .5620117.859375.4697266 1.8623047 1.5415039 1.7636719 3.9824219-.1269531 3.1245117-2.1455078 7.5209961-3.7900391 8.2529297-.3574219.1591797-.7197266.2402344-1.0751953.2402344zm-1.3325196-2.4116211c.1699219.2915039.6635742 1.0224609 1.3325195 1.0224609.1591797 0 .3310547-.0405273.5097656-.1201172.8535156-.3798828 2.8457031-4.0317383 2.9677734-7.0400391.0556641-1.3876953-.2949219-2.2983398-1.0419922-2.706543-.4765625-.2602539-.9257813-.3925781-1.3339844-.3925781-1.4570313 0-2.2563477 1.7387695-2.434082 2.1762695v7.060547z" fill="#471a03"/><path d="m10.9130859 24.6049805v-7.3637695s-1.4106445-4.112793-4.7949219-2.2651367c-3.3847656 1.8481445.1606446 10.1821288 1.975586 10.9907226 1.8129883.8081054 2.8193359-1.3618164 2.8193359-1.3618164z" fill="#bc6924"/><path d="m8.887207 26.8417969c-.3564453 0-.7182617-.0810547-1.0761719-.2407227-1.6450195-.7324219-3.6635742-5.1303711-3.7900391-8.2548828-.0981445-2.4394531.9052734-3.5107422 1.7641602-3.9799805.6835938-.3730469 1.355957-.5620117 1.9995117-.5620117 2.6533203 0 3.7407227 3.0805664 3.7856445 3.2114258l.0375977.2255859v7.5170898l-.0644531.1386719c-.0371093.0795899-.921875 1.9448243-2.65625 1.9448243zm-1.102539-11.6484375c-.4082031 0-.8569336.1323242-1.3334961.3925781-.7470703.4077148-1.0976563 1.3178711-1.0419922 2.7041016.121582 3.0087891 2.1137695 6.6621094 2.9672852 7.0419922.1787109.0800781.3505859.1206055.5107422.1206055.6674805 0 1.1601563-.7290039 1.3310547-1.0224609v-7.0605469c-.1777345-.4370118-.9760743-2.1762696-2.4335938-2.1762696z" fill="#471a03"/><path d="m35.7285156 19.8896484c-.1875 2.043457-.6806641 3.0620117-1.515625 3.0620117-.8398438 0-1.5180664-1.3710938-1.5180664-3.0620117 0-1.6918945.7749023-2.6733398 1.5180664-3.0625 1.515625-.7949218 3.2734375.3813477 1.515625 3.0625z" fill="#ffcba2"/><path d="m7.1259766 19.8896484c.1865234 2.043457.6787109 3.0620117 1.5161133 3.0620117.8369141 0 1.5151367-1.3710938 1.5151367-3.0620117 0-1.6918945-.7744141-2.6733398-1.5151367-3.0625-1.5161133-.7949218-3.2753907.3813477-1.5161133 3.0625z" fill="#ffcba2"/><path d="m32.9589844 18.0800781c0-.0654297.0019531-.1308594.0019531-.1962891 0-6.940918-5.1635742-12.5664063-11.5351563-12.5664063-6.3701172 0-11.5351563 5.6254883-11.5351563 12.5664063 0 .0654297.003418.1303711.0039063.1962891-.4785156 1.2363281-.7407227 2.5717773-.7407227 3.9638672 0 6.3808594 5.4951172 11.5527344 12.2719727 11.5527344 6.777832 0 12.2744141-5.171875 12.2744141-11.5527344 0-1.3920898-.2626953-2.727539-.7412109-3.9638672z" fill="#bc6924"/><path d="m21.4257813 34.2910156c-7.1499023 0-12.9667969-5.4936523-12.9667969-12.2470703 0-1.4003906.2485352-2.7739258.7382813-4.0849609l-.0014648-.0751953c0-7.3120117 5.4863281-13.2612305 12.2299805-13.2612305s12.2294922 5.9492188 12.2294922 13.2612305v.0717773c.4912109 1.3129883.7392578 2.6879883.7392578 4.0883789-.0000001 6.753418-5.817383 12.2470703-12.9687501 12.2470703zm0-28.2788086c-5.9775391 0-10.840332 5.3256836-10.840332 11.871582l-.0429688.4472656c-.4604492 1.1894531-.6938477 2.4384766-.6938477 3.7128906 0 5.9873047 5.1933594 10.8579102 11.5771484 10.8579102 6.3852539 0 11.5800781-4.8706055 11.5800781-10.8579102 0-1.2734375-.2338867-2.5224609-.6948242-3.7128906l-.046875-.2563477.0009766-.1030273c.0009766-6.633789-4.8618164-11.9594726-10.8393554-11.9594726z" fill="#471a03"/><path d="m28.7753906 19.0883789c.3920898-.8525391.6166992-1.8178711.6166992-2.8452148 0-3.4243164-2.4672852-6.2016602-5.5107422-6.2016602-.8828125 0-1.7148438.2392578-2.4550781.6552734-.7402344-.4160156-1.5712891-.6552734-2.4550781-.6552734-3.043457 0-5.5107422 2.7773438-5.5107422 6.2016602 0 1.0273438.2255859 1.9926758.6176758 2.8452148-1.2768555 1.2919922-2.0444336 2.9233398-2.0444336 4.7021484 0 4.1767578 4.2050781 7.5625 9.3920898 7.5625 5.1884766 0 9.3935547-3.3857422 9.3935547-7.5625 0-1.7788085-.7680664-3.4101562-2.0439453-4.7021484z" fill="#ffcba2"/><path d="m26.4204102 20.5683594c-.0732422 0-.1479492-.0146484-.2197266-.0454102-5.3168945-2.2929688-9.4555664-.0478516-9.496582-.0253906-.2685547.1489258-.605957.0532227-.7558594-.2133789-.1494141-.2675781-.0551758-.6054688.2114258-.7558594.1865234-.1040039 4.6367188-2.5444336 10.4814453-.0258789.2817383.121582.4116211.4482422.2900391.7304688-.0903321.2099609-.2954102.3354492-.5107422.3354492z" fill="#edb48d"/><ellipse cx="17.874756" cy="17.069336" fill="#772603" rx="1.442139" ry="1.989258"/><ellipse cx="17.459961" cy="16.273926" fill="#fff" rx=".529297" ry=".79541"/><ellipse cx="24.978516" cy="17.069336" fill="#772603" rx="1.442383" ry="1.989258"/><ellipse cx="24.563721" cy="16.273926" fill="#fff" rx=".529541" ry=".79541"/><path d="m15.8696289 15.0532227c-.1274414 0-.2553711-.043457-.3598633-.1323242-.2333984-.1987305-.262207-.5478516-.0639648-.7817383.909668-1.0722656 3.2875977-2.6464844 5.9658203-1.2270508.8647461-.4921875 3.3168945-1.5024414 5.9423828.9350586.2250977.2089844.2382813.5605469.0292969.7851563-.2084961.2250977-.5610352.2382813-.7851563.0292969-2.5649414-2.3803711-4.737793-.7338867-4.8295898-.6635742-.1831055.1416016-.4350586.1557617-.6323242.0361328-2.6826172-1.6396484-4.7558594.7236328-4.84375.824707-.1098633.1284179-.2661133.1943359-.4228516.1943359z" fill="#edb48d"/><path d="m21.4262695 25.4160156c-.3071289 0-.5556641-.2485352-.5556641-.5556641v-2.6860352c0-.3071289.2485352-.5556641.5556641-.5556641s.5556641.2485352.5556641.5556641v2.6860352c0 .307129-.2485352.5556641-.5556641.5556641z" fill="#edb48d"/><path d="m32.5830078 42.3339844c-2.8388672 1.0322265-10.7495117.9990234-7.9165039-1.8339844s3.5-3 4.4165039-2 6.25 2.8339844 3.5 3.8339844z" fill="#a55417"/><path d="m14.8945313 24.9140625c3.4150391-.0712891 10.2036133-.0712891 13.0639648 0 2.3911133.0585938-1.5058594 5.0410156-6.5317383 5.0410156-5.0263672 0-8.9228515-4.9926758-6.5322265-5.0410156z" fill="#913327"/><ellipse cx="21.42627" cy="28.554199" fill="#e57c8b" rx="4.58252" ry="1.400879"/><path d="m21.4267578 30.2329102c-4.0200195 0-7.5166016-3.1699219-7.5322266-4.7260742-.0053711-.5322266.3662109-.8579102.9941406-.8706055 1.6293945-.0341797 4.0883789-.0537109 6.7456055-.0537109 2.6582031 0 4.9658203.0195313 6.3310547.0537109.628418.015625 1 .3432617.9931641.8769531-.019043 1.5541992-3.5175781 4.7197266-7.5317383 4.7197266zm.2075195-5.0942383c-2.6147461 0-5.1318359.0195313-6.7338867.0532227-.453125.0092773-.4511719.2045898-.4501953.309082.012207 1.1772461 3.1171875 4.1762695 6.9765625 4.1762695 3.8540039 0 6.9619141-2.9951172 6.9760742-4.1708984.0014648-.0986328.0039063-.3032227-.4511719-.3144531-1.3413085-.0336915-3.7026367-.0532227-6.3173828-.0532227z" fill="#632104"/><path d="m29.004395 37.036133-.837891 5.880859" fill="#e8a463"/><path d="m28.1674805 43.5478516c-.0297852 0-.0595703-.0019531-.0898438-.0068359-.3447266-.0488281-.5844727-.3681641-.5356445-.7128906l.8378906-5.8808594c.0488281-.3447266.3686523-.59375.7133789-.5351563.3447266.0488281.5844727.3681641.5356445.7128906l-.8378906 5.8808594c-.0449218.3144531-.3149414.5419922-.6235351.5419922z" fill="#471a03"/><path d="m21.8740234 61.8271484h-13.4560546c-.215332 0-.4155273-.109375-.53125-.2910156s-.1313477-.4091797-.0415039-.6044922c.0410156-.0878906 1.0380859-2.1533203 5.4223633-3.5048828l1.4990234-1.5214844c-.2060547-2.1064453-.9511719-11.7001953 2.2675781-14.1640625 1.5136719-1.1552734 9.2568359.4101563 11.8842773.9863281.6289063-.2216797 2.8178711-.9824219 4.3618164-1.3974609.3427734-.0908203.6826172.109375.7734375.4453125.0898438.3369141-.109375.6826172-.4453125.7734375-1.7329102.4648438-4.4106445 1.4179688-4.4375 1.4267578-.1113281.0400391-.2319336.0478516-.3481445.0224609-4.7333984-1.0478516-10.2919922-1.8017578-11.0219727-1.2548828-2.4204102 1.8525391-2.0834961 10.2470703-1.7495117 13.3251953.0205078.1884766-.0449219.3759766-.1777344.5107422l-1.8203125 1.8466797c-.074707.0761719-.1669922.1318359-.2685547.1621094-2.0717773.6191406-3.2944336 1.3896484-3.9863281 1.9775391h11.8730469c.9824219-.9199219-.1987305-5.3193359-1.3569336-8.1230469-.1220703-.296875-.0029297-.6376953.277832-.7929688.2802734-.1572266.6333008-.0751953.8188477.1855469 3.6337891 5.0996094 9.0551758 10.0244141 21.7333984 7.8769531.3466797-.0585938.6689453.1728516.7275391.5166016.0576172.34375-.1738281.6689453-.5166016.7275391-9.2109375 1.5576172-15.597168-.1162109-20.6987305-5.5869141.6879883 2.4746094 1.109375 5.4560547-.4658203 6.3720703-.0961913.0566407-.2055663.0859375-.3168945.0859375z" fill="#471a03"/><g fill="#97593d"><path d="m21.5927734 22.1743164s1.0878906-1.7558594 1.6308594-1.1396484c.543457.6181641-.4916992 1.1396484-.4916992 1.1396484z"/><path d="m21.2597656 22.1743164s-1.0874023-1.7558594-1.6303711-1.1396484c-.543457.6181641.4921875 1.1396484.4921875 1.1396484z"/></g></svg>